# xmcd
#
# Track frame offsets: 
#        150
#        13787
#        32157
#        45184
#        68414
#        86588
#        110998
#        128820
#        151331
#        169187
#        184449
#        205189
#        223361
#        240008
#        262346
#        278378
#        293902
#        308809
#        328140
#
# Disc length: 4770 seconds
#
# Revision: 1
# Processed by: cddbd v1.5.2PL0 Copyright (c) Steve Scherf et al.
# Submitted via: ExactAudioCopy v1.3
#
DISCID=1512a013
DTITLE=Various Artist - Akella Presents - vol.48 - Zydeco!  CD1
DYEAR=2015
DGENRE=Zydeco/Blues
TTITLE0=C. J. Chenier - Man Smart, Woman Smarter
TTITLE1=Roy Carrier and The Night Rockers - My Baby Wants To Leave Me
TTITLE2=Fernest Arceneaux - Don't Mess With My Toot Toot
TTITLE3=Clifton Chenier - Cotton Picker Blues
TTITLE4=Beau Jocque - Baby Please Don't Go
TTITLE5=Nathan and Zydeco Cha Chas - Let's Go
TTITLE6=Major Handy - Zydeco Feeling
TTITLE7=Bill Sims - Want to See You Again
TTITLE8=Boozoo Chavis - I'm Going To The Country To Get Me Mojo Hand
TTITLE9=Rockin' Sidney - When A Man And A Woman's In Love
TTITLE10=Joe Walker - Business In The Street
TTITLE11=Buckwheat Zydeco - Hey, Good Lookin'
TTITLE12=Radio Kings - Tell Me When
TTITLE13=Geno Delafose - What Do You Want With His Love
TTITLE14=C.J. Chenier - It's Alright
TTITLE15=L.C. Donatto - Virgie Mae
TTITLE16=Queen Ida and Her Zydeco Band - C'est Moi
TTITLE17=Leroy Thomas - I'm Tired And Hungry
TTITLE18=Chris Ardoin and Double Clutchin' - Papa Was a Rollin' Stone
EXTD=
EXTT0=
EXTT1=
EXTT2=
EXTT3=
EXTT4=
EXTT5=
EXTT6=
EXTT7=
EXTT8=
EXTT9=
EXTT10=
EXTT11=
EXTT12=
EXTT13=
EXTT14=
EXTT15=
EXTT16=
EXTT17=
EXTT18=
PLAYORDER=
